<?xml version="1.0"?>
<svg xmlns="http://www.w3.org/2000/svg" xmlns:xlink="http://www.w3.org/1999/xlink" id="Layer_1" data-name="Layer 1" viewBox="0 0 512 512" width="512" height="512"><defs><linearGradient id="linear-gradient" x1="256.132" y1="11.98" x2="256.132" y2="493.606" gradientUnits="userSpaceOnUse"><stop offset="0" stop-color="#00efd1"/><stop offset="1" stop-color="#00acea"/></linearGradient><linearGradient id="linear-gradient-2" x1="256" y1="11.645" x2="256" y2="493.27" xlink:href="#linear-gradient"/></defs><title>Temperature</title><path d="M313,286.113V66.658c0-30.149-25.332-54.678-56.5-54.678S200,36.509,200,66.658V285.493a113.9,113.9,0,0,0-58.388,99.977c0,63.154,51.228,114.53,114.381,114.53h0c63.152,0,114.653-51.367,114.657-114.529A113.928,113.928,0,0,0,313,286.113ZM255.994,484.02a98.623,98.623,0,0,1-44.551-186.561,8.137,8.137,0,0,0,4.557-7.15V66.658c0-21.327,18.154-38.678,40.5-38.678S297,45.331,297,66.658V96H286.4a8,8,0,0,0,0,16H297v15H286.4a8,8,0,0,0,0,16H297v17H286.4a8,8,0,0,0,0,16H297v15H286.4a8,8,0,0,0,0,16H297v18H286.4a8,8,0,1,0,0,16H297v15H286.4a8,8,0,1,0,0,16H297v18.846a7.893,7.893,0,0,0,4.176,7.091A98.5,98.5,0,0,1,255.994,484.02Z" style="fill:url(#linear-gradient)"/><path d="M264,335.326V72a8,8,0,0,0-16,0V335.326a53.944,53.944,0,1,0,16,0Zm-8,91.292a37.944,37.944,0,0,1-1.852-75.842,7.768,7.768,0,0,0,3.7,0A37.944,37.944,0,0,1,256,426.618Z" style="fill:url(#linear-gradient-2)"/></svg>
